# xmcd
#
# Track frame offsets:
#	150
#	15026
#	26255
#	40937
#	58156
#	73698
#	86691
#
# Disc length: 1339 seconds
# Revision: 0
# Processed by: cddbd v1.5.2PL0 Copyright (c) Steve Scherf et al.
# Submitted via: dBpowerAMP V12.0
#
DISCID=4c053907
DTITLE=Various Artist - Rural Rhythm Records (Fresh Cuts and Key Tracks - 2008)
DYEAR=2008
DGENRE=Bluegrass
TTITLE0=I Can Go Back Anytime - Carrie Hassler and Hard Rain
TTITLE1=Losin' In Las Vegas - Ricky Wasson
TTITLE2=Take This Hammer - Mashville Brigade
TTITLE3=My Eye's Shall Be On Canaan's Land - Cody Shuler and Pine Mountain Railroad
TTITLE4=While The Getting's Good - Mountain Heart
TTITLE5=If All Those Trains Were Still Around - Randy Kohrs
TTITLE6=West Virginia Ground - Dwight McCall
EXTD=
EXTT0=
EXTT1=
EXTT2=
EXTT3=
EXTT4=
EXTT5=
EXTT6=
PLAYORDER=
